<svg width="208" height="57" viewBox="0 0 208 57" fill="none" xmlns="http://www.w3.org/2000/svg">
<path d="M55.9 6.5C55.9 10.1 53 13 49.4 13C45.8 13 42.9 10.1 42.9 6.5C42.9 2.9 45.7 0 49.4 0C53.1 0.1 55.9 3 55.9 6.5ZM29.1 19.6C29.1 20.2 29.1 21.2 29.1 21.2C29.1 21.2 26 17.2 19.4 17.2C8.49999 17.2 0 25.5 0 37C0 48.4 8.39999 56.8 19.4 56.8C26.1 56.8 29.1 52.7 29.1 52.7V54.4C29.1 55.2 29.7 55.8 30.5 55.8H38.6V37V18.2C38.6 18.2 31.2 18.2 30.5 18.2C29.7 18.2 29.1 18.9 29.1 19.6ZM29.1 43.7C27.6 45.9 24.6 47.8 21 47.8C14.6 47.8 9.7 43.8 9.7 37C9.7 30.2 14.6 26.2 21 26.2C24.5 26.2 27.7 28.2 29.1 30.3V43.7ZM44.6 18.2H54.2V55.8H44.6V18.2ZM188 17.2C181.4 17.2 178.3 21.2 178.3 21.2V0.1H168.7V55.8C168.7 55.8 176.1 55.8 176.8 55.8C177.6 55.8 178.2 55.1 178.2 54.4V52.7C178.2 52.7 181.3 56.8 187.9 56.8C198.8 56.8 207.3 48.4 207.3 37C207.3 25.6 198.8 17.2 188 17.2ZM186.4 47.7C182.7 47.7 179.8 45.8 178.3 43.6V30.2C179.8 28.2 183 26.1 186.4 26.1C192.8 26.1 197.7 30.1 197.7 36.9C197.7 43.7 192.8 47.7 186.4 47.7ZM163.7 33.5V55.9H154.1V34.6C154.1 28.4 152.1 25.9 146.7 25.9C143.8 25.9 140.8 27.4 138.9 29.6V55.8H129.3V18.2H136.9C137.7 18.2 138.3 18.9 138.3 19.6V21.2C141.1 18.3 144.8 17.2 148.5 17.2C152.7 17.2 156.2 18.4 159 20.8C162.4 23.6 163.7 27.2 163.7 33.5ZM106 17.2C99.4 17.2 96.3 21.2 96.3 21.2V0.1H86.7V55.8C86.7 55.8 94.1 55.8 94.8 55.8C95.6 55.8 96.2 55.1 96.2 54.4V52.7C96.2 52.7 99.3 56.8 105.9 56.8C116.8 56.8 125.3 48.4 125.3 37C125.4 25.6 116.9 17.2 106 17.2ZM104.4 47.7C100.7 47.7 97.8 45.8 96.3 43.6V30.2C97.8 28.2 101 26.1 104.4 26.1C110.8 26.1 115.7 30.1 115.7 36.9C115.7 43.7 110.8 47.7 104.4 47.7ZM78.4 17.2C81.3 17.2 82.8 17.7 82.8 17.7V26.6C82.8 26.6 74.8 23.9 69.8 29.6V55.9H60.2V18.2C60.2 18.2 67.6 18.2 68.3 18.2C69.1 18.2 69.7 18.9 69.7 19.6V21.2C71.5 19.1 75.4 17.2 78.4 17.2Z" fill="#FF5A5F"/>
</svg>
