<svg width="79" height="21" viewBox="0 0 79 21" fill="none" xmlns="http://www.w3.org/2000/svg">
<path d="M74.6231 14.7999C74.6231 15.0253 74.7098 15.2073 74.8831 15.3459C75.0564 15.4759 75.2774 15.5886 75.5461 15.6839C75.8234 15.7706 76.1181 15.8616 76.4301 15.9569C76.7421 16.0523 77.0324 16.1736 77.3011 16.3209C77.5784 16.4683 77.8038 16.6676 77.9771 16.9189C78.1504 17.1703 78.2371 17.4953 78.2371 17.8939C78.2371 18.3793 78.1028 18.7909 77.8341 19.1289C77.5741 19.4583 77.2144 19.7096 76.7551 19.8829C76.3044 20.0563 75.7931 20.1429 75.2211 20.1429C74.8918 20.1429 74.5408 20.1126 74.1681 20.0519C73.8041 19.9999 73.4271 19.9219 73.0371 19.8179L73.1151 17.9199H74.1031L74.2461 19.1029L74.0901 18.9209C74.2808 18.9729 74.4801 19.0163 74.6881 19.0509C74.9048 19.0769 75.0954 19.0899 75.2601 19.0899C75.5028 19.0899 75.7281 19.0553 75.9361 18.9859C76.1528 18.9166 76.3304 18.8126 76.4691 18.6739C76.6078 18.5353 76.6771 18.3619 76.6771 18.1539C76.6771 17.9199 76.5904 17.7379 76.4171 17.6079C76.2438 17.4693 76.0184 17.3523 75.7411 17.2569C75.4724 17.1616 75.1864 17.0663 74.8831 16.9709C74.5798 16.8756 74.2894 16.7543 74.0121 16.6069C73.7434 16.4509 73.5224 16.2473 73.3491 15.9959C73.1758 15.7446 73.0891 15.4153 73.0891 15.0079C73.0891 14.5226 73.2104 14.1283 73.4531 13.8249C73.6958 13.5216 74.0164 13.3006 74.4151 13.1619C74.8224 13.0146 75.2601 12.9409 75.7281 12.9409C76.0574 12.9409 76.4128 12.9756 76.7941 13.0449C77.1754 13.1056 77.5698 13.1966 77.9771 13.3179L77.9121 14.9689H76.9111L76.7031 13.9419L76.9241 14.1759C76.4994 14.0546 76.1224 13.9939 75.7931 13.9939C75.4464 13.9939 75.1648 14.0676 74.9481 14.2149C74.7314 14.3623 74.6231 14.5573 74.6231 14.7999Z" fill="black"/>
<path d="M68.784 12.9409C69.7893 12.9409 70.5693 13.2443 71.124 13.8509C71.6873 14.4489 71.969 15.3026 71.969 16.4119C71.969 17.1833 71.8303 17.8463 71.553 18.4009C71.2843 18.9556 70.8943 19.3846 70.383 19.6879C69.8803 19.9913 69.2737 20.1429 68.563 20.1429C67.5663 20.1429 66.7907 19.8439 66.236 19.2459C65.69 18.6479 65.417 17.7899 65.417 16.6719C65.417 15.9006 65.5513 15.2376 65.82 14.6829C66.0887 14.1283 66.4743 13.6993 66.977 13.3959C67.4797 13.0926 68.082 12.9409 68.784 12.9409ZM68.706 14.0589C68.16 14.0589 67.744 14.2713 67.458 14.6959C67.1807 15.1206 67.042 15.7533 67.042 16.5939C67.042 17.4346 67.1763 18.0499 67.445 18.4399C67.7137 18.8299 68.1123 19.0249 68.641 19.0249C69.0223 19.0249 69.3387 18.9296 69.59 18.7389C69.8413 18.5396 70.032 18.2536 70.162 17.8809C70.292 17.4996 70.357 17.0359 70.357 16.4899C70.357 15.6753 70.214 15.0686 69.928 14.6699C69.6507 14.2626 69.2433 14.0589 68.706 14.0589Z" fill="black"/>
<path d="M61.2938 12.9409C62.2991 12.9409 63.0791 13.2443 63.6338 13.8509C64.1971 14.4489 64.4788 15.3026 64.4788 16.4119C64.4788 17.1833 64.3401 17.8463 64.0628 18.4009C63.7941 18.9556 63.4041 19.3846 62.8928 19.6879C62.3901 19.9913 61.7834 20.1429 61.0728 20.1429C60.0761 20.1429 59.3004 19.8439 58.7458 19.2459C58.1998 18.6479 57.9268 17.7899 57.9268 16.6719C57.9268 15.9006 58.0611 15.2376 58.3298 14.6829C58.5984 14.1283 58.9841 13.6993 59.4868 13.3959C59.9894 13.0926 60.5918 12.9409 61.2938 12.9409ZM61.2158 14.0589C60.6698 14.0589 60.2538 14.2713 59.9678 14.6959C59.6904 15.1206 59.5518 15.7533 59.5518 16.5939C59.5518 17.4346 59.6861 18.0499 59.9548 18.4399C60.2234 18.8299 60.6221 19.0249 61.1508 19.0249C61.5321 19.0249 61.8484 18.9296 62.0998 18.7389C62.3511 18.5396 62.5418 18.2536 62.6718 17.8809C62.8018 17.4996 62.8668 17.0359 62.8668 16.4899C62.8668 15.6753 62.7238 15.0686 62.4378 14.6699C62.1604 14.2626 61.7531 14.0589 61.2158 14.0589Z" fill="black"/>
<path d="M52.1367 19.9999V19.1939L53.2157 18.9079L53.0597 19.1549V13.9549L53.2417 14.2279L52.1367 13.9289V13.1229L54.2687 13.0189L54.4767 14.2669L54.2687 14.2149C54.6587 13.8076 55.0401 13.4956 55.4127 13.2789C55.7941 13.0536 56.2057 12.9409 56.6477 12.9409C56.9251 12.9409 57.2154 12.9843 57.5187 13.0709L57.4147 15.2549H56.4917L56.3227 13.9159L56.4657 14.2279C56.4137 14.2106 56.3574 14.1976 56.2967 14.1889C56.2361 14.1803 56.1754 14.1759 56.1147 14.1759C55.8201 14.1759 55.5297 14.2669 55.2437 14.4489C54.9664 14.6223 54.7151 14.8519 54.4897 15.1379L54.6197 14.7089V19.1549L54.4247 18.9079L55.7507 19.1939V19.9999H52.1367Z" fill="black"/>
<path d="M46.9812 20.1431C46.4872 20.1431 46.0452 20.0131 45.6552 19.7531C45.2739 19.4844 44.9706 19.0901 44.7452 18.5701C44.5199 18.0501 44.4072 17.4218 44.4072 16.6851C44.4072 15.4284 44.7279 14.4924 45.3692 13.8771C46.0106 13.2531 46.9032 12.9411 48.0472 12.9411C48.2466 12.9411 48.4502 12.9541 48.6582 12.9801C48.8662 12.9974 49.0829 13.0321 49.3082 13.0841L49.0222 13.2661V10.9651L49.1392 11.1341L48.0342 10.8091V10.0161L50.5822 9.91211V19.1161L50.3742 18.8821L51.4922 19.1811V19.9871L49.3602 20.0781L49.1522 18.9601L49.3212 19.0251C48.9399 19.3978 48.5542 19.6794 48.1642 19.8701C47.7829 20.0521 47.3886 20.1431 46.9812 20.1431ZM47.5662 18.9861C47.8176 18.9861 48.0819 18.9168 48.3592 18.7781C48.6366 18.6394 48.9182 18.4358 49.2042 18.1671L49.0222 18.6481V13.9031L49.2172 14.2671C48.7666 14.1284 48.3592 14.0591 47.9952 14.0591C47.3279 14.0591 46.8339 14.2801 46.5132 14.7221C46.1926 15.1641 46.0322 15.7708 46.0322 16.5421C46.0322 17.0448 46.0972 17.4824 46.2272 17.8551C46.3572 18.2191 46.5349 18.5008 46.7602 18.7001C46.9942 18.8908 47.2629 18.9861 47.5662 18.9861Z" fill="black"/>
<path d="M36.0264 19.9999V19.1939L37.1444 18.8949L36.9494 19.1289V13.9679L37.1444 14.2279L36.0264 13.9289V13.1229L38.1584 13.0189L38.3664 14.2799L38.1584 14.2019C38.583 13.7686 39.0294 13.4523 39.4974 13.2529C39.9654 13.0449 40.4117 12.9409 40.8364 12.9409C41.417 12.9409 41.898 13.1229 42.2794 13.4869C42.6694 13.8509 42.86 14.4013 42.8514 15.1379V19.1289L42.6954 18.8949L43.7744 19.1939V19.9999H40.4464V19.1939L41.4864 18.9209L41.2914 19.1679V15.4759C41.2914 15.0166 41.1874 14.6786 40.9794 14.4619C40.78 14.2453 40.5114 14.1369 40.1734 14.1369C39.9134 14.1369 39.6274 14.2106 39.3154 14.3579C39.0034 14.4966 38.6957 14.7133 38.3924 15.0079L38.5094 14.7609V19.1679L38.3534 18.9209L39.3544 19.1939V19.9999H36.0264Z" fill="black"/>
<path d="M34.4723 19.0642L34.3423 18.9212L35.3823 19.1942V20.0002H31.9893V19.1942L33.0293 18.9212L32.9123 19.0642V14.0722L33.0163 14.1892L31.9893 13.9292V13.1232L34.4723 13.0322V19.0642ZM33.6273 11.8882C33.3413 11.8882 33.1116 11.8059 32.9383 11.6412C32.7649 11.4766 32.6783 11.2469 32.6783 10.9522C32.6783 10.6316 32.7693 10.3932 32.9513 10.2372C33.1333 10.0726 33.3629 9.99023 33.6403 9.99023C33.9089 9.99023 34.1299 10.0682 34.3033 10.2242C34.4853 10.3802 34.5763 10.6186 34.5763 10.9392C34.5763 11.2512 34.4853 11.4896 34.3033 11.6542C34.1213 11.8102 33.8959 11.8882 33.6273 11.8882Z" fill="black"/>
<path d="M28.6691 10.939L32.0101 10.874V11.68L30.8141 12.005L31.1911 11.589L28.8121 20.013H27.3041L25.2371 12.811H25.5361L23.3781 20.013H21.8701L19.6861 11.706L19.8551 11.979L18.8281 11.745V10.939L22.3251 10.874V11.68L21.1161 12.018L21.3241 11.706L22.9231 18.57L22.5981 18.557L24.7561 10.926L26.2251 10.874L28.3181 18.531L27.9931 18.544L29.7741 11.719L29.9171 12.005L28.6691 11.745V10.939Z" fill="black"/>
<path d="M12.8049 20.1429C12.1983 20.1429 11.6609 20.0129 11.1929 19.7529C10.7249 19.4843 10.3609 19.0899 10.1009 18.5699C9.84094 18.0499 9.71094 17.4129 9.71094 16.6589C9.71094 15.8876 9.84527 15.2246 10.1139 14.6699C10.3913 14.1153 10.7769 13.6906 11.2709 13.3959C11.7736 13.0926 12.3673 12.9409 13.0519 12.9409C13.7019 12.9409 14.2306 13.0753 14.6379 13.3439C15.0539 13.6039 15.3616 13.9636 15.5609 14.4229C15.7603 14.8823 15.8599 15.4023 15.8599 15.9829C15.8599 16.1129 15.8556 16.2429 15.8469 16.3729C15.8383 16.5029 15.8209 16.6459 15.7949 16.8019H10.9589V15.8139H14.4299L14.2479 15.9309C14.2566 15.5843 14.2176 15.2723 14.1309 14.9949C14.0529 14.7176 13.9143 14.4966 13.7149 14.3319C13.5156 14.1673 13.2513 14.0849 12.9219 14.0849C12.5493 14.0849 12.2416 14.1889 11.9989 14.3969C11.7649 14.6049 11.5916 14.8866 11.4789 15.2419C11.3749 15.5973 11.3229 16.0003 11.3229 16.4509C11.3229 16.9449 11.3879 17.3826 11.5179 17.7639C11.6479 18.1366 11.8516 18.4313 12.1289 18.6479C12.4063 18.8646 12.7573 18.9729 13.1819 18.9729C13.4853 18.9729 13.8146 18.9166 14.1699 18.8039C14.5253 18.6913 14.8936 18.5179 15.2749 18.2839L15.8079 19.1289C15.3139 19.4669 14.8113 19.7226 14.2999 19.8959C13.7886 20.0606 13.2903 20.1429 12.8049 20.1429Z" fill="black"/>
<path d="M4.54953 10.874C5.16486 10.874 5.72386 10.965 6.22653 11.147C6.73786 11.329 7.17553 11.6064 7.53953 11.979C7.90353 12.343 8.1852 12.8024 8.38453 13.357C8.58386 13.903 8.68353 14.5444 8.68353 15.281C8.68353 16.3124 8.4972 17.179 8.12453 17.881C7.76053 18.5744 7.2492 19.103 6.59053 19.467C5.93187 19.8224 5.16486 20 4.28953 20H0.519531V19.194L1.76753 18.869L1.53353 19.194V11.719L1.78053 12.057L0.519531 11.745V10.939L3.30153 10.874H4.54953ZM4.36753 18.843C4.6882 18.843 5.0002 18.7954 5.30353 18.7C5.60686 18.596 5.8842 18.4227 6.13553 18.18C6.38687 17.9287 6.5862 17.5777 6.73353 17.127C6.88953 16.6764 6.96753 16.0957 6.96753 15.385C6.96753 14.6917 6.89386 14.1284 6.74653 13.695C6.60787 13.253 6.4172 12.915 6.17453 12.681C5.94053 12.4384 5.6762 12.2694 5.38153 12.174C5.09553 12.0787 4.80086 12.031 4.49753 12.031H2.87253L3.13253 11.771V19.103L2.87253 18.843H4.36753Z" fill="black"/>
<path d="M40.5293 10.3902C40.4493 10.3902 40.3693 10.3869 40.2893 10.3802C40.2093 10.3736 40.1226 10.3636 40.0293 10.3502L40.0993 9.76023C40.166 9.7669 40.2293 9.77024 40.2893 9.77024C40.3493 9.7769 40.4026 9.78023 40.4493 9.78023C40.816 9.78023 41.076 9.69023 41.2293 9.51023C41.3826 9.33023 41.4593 9.02357 41.4593 8.59023V3.24023L41.5693 3.37023L40.6793 3.18023V2.75023L42.2593 2.69023V8.33023C42.2593 8.67023 42.226 8.9669 42.1593 9.22023C42.0993 9.48023 41.9993 9.69357 41.8593 9.86023C41.7193 10.0336 41.5393 10.1636 41.3193 10.2502C41.0993 10.3436 40.836 10.3902 40.5293 10.3902ZM41.7793 1.61023C41.626 1.61023 41.4993 1.56023 41.3993 1.46023C41.2993 1.36023 41.2493 1.22357 41.2493 1.05023C41.2493 0.870234 41.2993 0.733568 41.3993 0.640234C41.506 0.540234 41.636 0.490234 41.7893 0.490234C41.9493 0.490234 42.0793 0.536901 42.1793 0.630234C42.2793 0.723568 42.3293 0.863568 42.3293 1.05023C42.3293 1.23023 42.276 1.37023 42.1693 1.47023C42.0626 1.56357 41.9326 1.61023 41.7793 1.61023Z" fill="#575757"/>
<path d="M39.3915 7.49023L39.3015 7.38023L40.1715 7.57023V8.00023H37.8115V7.57023L38.6815 7.38023L38.5915 7.49023V3.27023L38.6715 3.36023L37.8115 3.18023V2.75023L39.3915 2.69023V7.49023ZM38.9315 1.61023C38.7782 1.61023 38.6515 1.56023 38.5515 1.46023C38.4515 1.36023 38.4015 1.22357 38.4015 1.05023C38.4015 0.870234 38.4515 0.733568 38.5515 0.640234C38.6582 0.540234 38.7882 0.490234 38.9415 0.490234C39.1015 0.490234 39.2315 0.536901 39.3315 0.630234C39.4315 0.723568 39.4815 0.863568 39.4815 1.05023C39.4815 1.23023 39.4282 1.37023 39.3215 1.47023C39.2149 1.56357 39.0849 1.61023 38.9315 1.61023Z" fill="#575757"/>
<path d="M33.5146 7.99988V7.56988L34.3946 7.37988L34.2946 7.52988V3.21988L34.4046 3.36988L33.5146 3.17988V2.74988L34.9146 2.67988L35.0246 3.65988L34.9146 3.61988C35.2146 3.30655 35.508 3.06322 35.7946 2.88988C36.0813 2.71655 36.3946 2.62988 36.7346 2.62988C36.948 2.62988 37.1713 2.66322 37.4046 2.72988L37.3446 4.12988H36.8446L36.7246 3.13988L36.8146 3.31988C36.768 3.30655 36.718 3.29655 36.6646 3.28988C36.6113 3.28322 36.558 3.27988 36.5046 3.27988C36.238 3.27988 35.978 3.35988 35.7246 3.51988C35.478 3.67988 35.2413 3.88655 35.0146 4.13988L35.0946 3.89988V7.52988L34.9746 7.37988L36.0646 7.56988V7.99988H33.5146Z" fill="#575757"/>
<path d="M30.4265 8.08988C29.9798 8.08988 29.5832 7.98988 29.2365 7.78988C28.8965 7.58322 28.6298 7.28322 28.4365 6.88988C28.2432 6.49655 28.1465 6.01655 28.1465 5.44988C28.1465 4.86988 28.2465 4.36988 28.4465 3.94988C28.6465 3.52988 28.9298 3.20655 29.2965 2.97988C29.6632 2.74655 30.0932 2.62988 30.5865 2.62988C31.0532 2.62988 31.4365 2.72988 31.7365 2.92988C32.0432 3.12322 32.2698 3.39322 32.4165 3.73988C32.5698 4.08655 32.6465 4.48322 32.6465 4.92988C32.6465 5.00322 32.6432 5.07655 32.6365 5.14988C32.6298 5.22322 32.6198 5.31322 32.6065 5.41988H28.7565V4.84988H31.9065L31.8165 4.90988C31.8232 4.60988 31.7865 4.33322 31.7065 4.07988C31.6265 3.82655 31.4898 3.62322 31.2965 3.46988C31.1032 3.31655 30.8465 3.23988 30.5265 3.23988C30.1865 3.23988 29.8998 3.32988 29.6665 3.50988C29.4332 3.68988 29.2598 3.93655 29.1465 4.24988C29.0332 4.56322 28.9765 4.92655 28.9765 5.33988C28.9765 5.77988 29.0398 6.15988 29.1665 6.47988C29.2932 6.79322 29.4765 7.03655 29.7165 7.20988C29.9632 7.38322 30.2632 7.46988 30.6165 7.46988C30.8632 7.46988 31.1332 7.42322 31.4265 7.32988C31.7198 7.22988 32.0231 7.07988 32.3365 6.87988L32.6265 7.32988C32.2532 7.58322 31.8798 7.77322 31.5065 7.89988C31.1332 8.02655 30.7732 8.08988 30.4265 8.08988Z" fill="#575757"/>
<path d="M24.1888 8.08979C23.8221 8.08979 23.4888 7.98979 23.1888 7.78979C22.8888 7.58312 22.6521 7.28312 22.4788 6.88979C22.3054 6.48979 22.2188 6.00645 22.2188 5.43979C22.2188 4.51312 22.4554 3.81312 22.9288 3.33979C23.4021 2.86645 24.0521 2.62979 24.8787 2.62979C25.0521 2.62979 25.2321 2.64312 25.4188 2.66979C25.6121 2.69645 25.8088 2.73645 26.0088 2.78978L25.8488 2.87979V0.869785L25.9388 0.979785L25.0188 0.779785V0.349785L26.6488 0.279785V7.50979L26.5288 7.36979L27.4288 7.54979V7.98979L26.0288 8.04979L25.9088 7.18979L26.0088 7.22978C25.7088 7.51645 25.4054 7.73312 25.0988 7.87979C24.7988 8.01979 24.4954 8.08979 24.1888 8.08979ZM24.4688 7.47978C24.7021 7.47978 24.9421 7.41979 25.1888 7.29979C25.4421 7.17312 25.6954 6.98645 25.9488 6.73979L25.8488 7.00979V3.21979L25.9587 3.41979C25.5521 3.28645 25.1821 3.21979 24.8488 3.21979C24.2621 3.21979 23.8154 3.40979 23.5088 3.78978C23.2021 4.16978 23.0487 4.69645 23.0487 5.36979C23.0487 5.80979 23.1088 6.18979 23.2288 6.50979C23.3554 6.82312 23.5254 7.06312 23.7388 7.22978C23.9588 7.39645 24.2021 7.47978 24.4688 7.47978Z" fill="#575757"/>
<path d="M17.9287 7.99988V7.56988L18.8087 7.37988L18.7087 7.52988V3.21988L18.8187 3.36988L17.9287 3.17988V2.74988L19.3287 2.67988L19.4387 3.65988L19.3287 3.61988C19.6287 3.30655 19.922 3.06322 20.2087 2.88988C20.4954 2.71655 20.8087 2.62988 21.1487 2.62988C21.362 2.62988 21.5854 2.66322 21.8187 2.72988L21.7587 4.12988H21.2587L21.1387 3.13988L21.2287 3.31988C21.182 3.30655 21.132 3.29655 21.0787 3.28988C21.0254 3.28322 20.972 3.27988 20.9187 3.27988C20.652 3.27988 20.392 3.35988 20.1387 3.51988C19.892 3.67988 19.6554 3.88655 19.4287 4.13988L19.5087 3.89988V7.52988L19.3887 7.37988L20.4787 7.56988V7.99988H17.9287Z" fill="#575757"/>
<path d="M14.8405 8.08988C14.3939 8.08988 13.9972 7.98988 13.6505 7.78988C13.3105 7.58322 13.0439 7.28322 12.8505 6.88988C12.6572 6.49655 12.5605 6.01655 12.5605 5.44988C12.5605 4.86988 12.6605 4.36988 12.8605 3.94988C13.0605 3.52988 13.3439 3.20655 13.7105 2.97988C14.0772 2.74655 14.5072 2.62988 15.0005 2.62988C15.4672 2.62988 15.8505 2.72988 16.1505 2.92988C16.4572 3.12322 16.6839 3.39322 16.8305 3.73988C16.9839 4.08655 17.0605 4.48322 17.0605 4.92988C17.0605 5.00322 17.0572 5.07655 17.0505 5.14988C17.0439 5.22322 17.0339 5.31322 17.0205 5.41988H13.1705V4.84988H16.3205L16.2305 4.90988C16.2372 4.60988 16.2005 4.33322 16.1205 4.07988C16.0405 3.82655 15.9039 3.62322 15.7105 3.46988C15.5172 3.31655 15.2605 3.23988 14.9405 3.23988C14.6005 3.23988 14.3139 3.32988 14.0805 3.50988C13.8472 3.68988 13.6739 3.93655 13.5605 4.24988C13.4472 4.56322 13.3905 4.92655 13.3905 5.33988C13.3905 5.77988 13.4539 6.15988 13.5805 6.47988C13.7072 6.79322 13.8905 7.03655 14.1305 7.20988C14.3772 7.38322 14.6772 7.46988 15.0305 7.46988C15.2772 7.46988 15.5472 7.42322 15.8405 7.32988C16.1339 7.22988 16.4372 7.07988 16.7505 6.87988L17.0405 7.32988C16.6672 7.58322 16.2939 7.77322 15.9205 7.89988C15.5472 8.02655 15.1872 8.08988 14.8405 8.08988Z" fill="#575757"/>
<path d="M9.26785 2.62988C10.0012 2.62988 10.5745 2.85988 10.9879 3.31988C11.4079 3.77988 11.6179 4.42988 11.6179 5.26988C11.6179 5.83655 11.5145 6.33322 11.3079 6.75988C11.1079 7.17988 10.8212 7.50655 10.4479 7.73988C10.0745 7.97322 9.62452 8.08988 9.09785 8.08988C8.37785 8.08988 7.81452 7.86655 7.40785 7.41988C7.00119 6.96655 6.79785 6.31655 6.79785 5.46988C6.79785 4.88322 6.89452 4.37988 7.08785 3.95988C7.28785 3.53322 7.57119 3.20655 7.93785 2.97988C8.31119 2.74655 8.75452 2.62988 9.26785 2.62988ZM9.22785 3.21988C8.71452 3.21988 8.32119 3.41322 8.04785 3.79988C7.77452 4.18655 7.63785 4.72988 7.63785 5.42988C7.63785 6.11655 7.76785 6.63322 8.02785 6.97988C8.28785 7.32655 8.66118 7.49988 9.14785 7.49988C9.50118 7.49988 9.79785 7.41322 10.0379 7.23988C10.2845 7.05988 10.4679 6.80655 10.5879 6.47988C10.7145 6.15322 10.7779 5.76322 10.7779 5.30988C10.7779 4.62988 10.6412 4.11322 10.3679 3.75988C10.1012 3.39988 9.72119 3.21988 9.22785 3.21988Z" fill="#575757"/>
<path d="M3.66023 4.48002L3.72023 4.39002C4.17357 4.39669 4.5569 4.47002 4.87023 4.61002C5.18357 4.74335 5.4169 4.93669 5.57024 5.19002C5.73024 5.44335 5.81024 5.75002 5.81024 6.11002C5.81024 6.48335 5.72023 6.81335 5.54023 7.10002C5.3669 7.38002 5.09023 7.60002 4.71023 7.76002C4.3369 7.92002 3.8569 8.00002 3.27023 8.00002H0.490234V7.57002L1.48023 7.36002L1.35023 7.54002V1.50002L1.51023 1.69002L0.490234 1.50002V1.07002L2.14023 1.02002H3.38023C3.86023 1.02002 4.26023 1.08669 4.58023 1.22002C4.90023 1.35335 5.14023 1.54669 5.30023 1.80002C5.46023 2.05335 5.54023 2.36335 5.54023 2.73002C5.54023 3.21002 5.39357 3.60002 5.10023 3.90002C4.8069 4.20002 4.3269 4.39335 3.66023 4.48002ZM3.21023 1.62002H2.02023L2.17023 1.47002V4.28002L2.02023 4.14002H2.96023C3.35357 4.14002 3.68023 4.09002 3.94023 3.99002C4.20023 3.89002 4.39357 3.74335 4.52024 3.55002C4.6469 3.35669 4.71023 3.12002 4.71023 2.84002C4.71023 2.56669 4.65357 2.34002 4.54023 2.16002C4.4269 1.98002 4.26023 1.84669 4.04023 1.76002C3.82023 1.66669 3.54357 1.62002 3.21023 1.62002ZM3.21023 7.40002C3.60357 7.40002 3.93023 7.34669 4.19023 7.24002C4.45023 7.13335 4.64357 6.98335 4.77024 6.79002C4.90357 6.59002 4.97023 6.34669 4.97023 6.06002C4.97023 5.78002 4.91023 5.54335 4.79023 5.35002C4.6769 5.15002 4.5069 4.99669 4.28023 4.89002C4.06023 4.78335 3.79357 4.73002 3.48023 4.73002H2.02023L2.17023 4.57002V7.54002L2.02023 7.40002H3.21023Z" fill="#575757"/>
</svg>
